<?xml version="1.0" standalone="no"?>
<!DOCTYPE svg PUBLIC "-//W3C//DTD SVG 20010904//EN"
 "http://www.w3.org/TR/2001/REC-SVG-20010904/DTD/svg10.dtd">
<svg version="1.0" xmlns="http://www.w3.org/2000/svg"
 width="300.000000pt" height="300.000000pt" viewBox="0 0 300.000000 300.000000"
 preserveAspectRatio="xMidYMid meet">
<metadata>
Created by potrace 1.10, written by Peter Selinger 2001-2011
</metadata>
<g transform="translate(0.000000,300.000000) scale(0.100000,-0.100000)"
fill="#000000" stroke="none">
<path d="M955 2272 c-19 -16 -20 -28 -18 -377 1 -198 5 -367 8 -377 12 -31 56
-37 248 -34 l187 3 0 -39 c0 -21 0 -41 0 -45 0 -5 -13 -8 -29 -9 -50 -2 -61
-11 -61 -48 0 -19 6 -38 13 -43 13 -8 494 -6 508 3 5 3 9 21 9 39 0 36 -6 40
-70 47 -18 2 -24 9 -23 26 0 12 1 32 2 45 l1 22 201 0 c136 0 207 3 217 11 15
11 35 124 23 124 -4 0 -5 142 -3 316 2 285 1 319 -14 335 -16 18 -44 19 -598
19 -534 -1 -583 -2 -601 -18z m1190 -16 c20 -26 14 -734 -6 -747 -8 -5 -269
-9 -591 -9 -561 0 -578 1 -588 19 -6 13 -10 149 -10 375 0 335 1 356 19 368
15 10 135 13 591 12 532 0 573 -1 585 -18z m-435 -816 l0 -50 -155 0 -155 0 0
50 0 50 155 0 155 0 0 -50z m98 -98 l3 -32 -255 0 -256 0 0 28 c0 16 2 31 4
33 2 2 116 4 253 3 l248 -1 3 -31z"/>
<path d="M980 1919 l0 -329 575 0 575 0 0 328 0 327 -575 1 -575 2 0 -329z
m1131 279 c1 -18 2 -151 4 -295 2 -283 4 -274 -51 -253 -15 6 -29 8 -31 6 -3
-3 13 -10 36 -17 23 -7 41 -18 41 -25 0 -10 -114 -12 -555 -12 l-554 0 -3 92
c-2 50 -2 191 0 313 l3 222 554 1 555 0 1 -32z"/>
<path d="M1630 1946 c0 -2 8 -10 18 -17 15 -13 16 -12 3 4 -13 16 -21 21 -21
13z"/>
<path d="M1690 1886 c0 -2 8 -10 18 -17 15 -13 16 -12 3 4 -13 16 -21 21 -21
13z"/>
<path d="M1780 1801 c0 -5 5 -13 10 -16 6 -3 10 -2 10 4 0 5 -4 13 -10 16 -5
3 -10 2 -10 -4z"/>
<path d="M1860 1746 c0 -3 9 -10 20 -16 11 -6 20 -8 20 -6 0 3 -9 10 -20 16
-11 6 -20 8 -20 6z"/>
<path d="M1910 1716 c0 -3 9 -10 20 -16 11 -6 20 -8 20 -6 0 3 -9 10 -20 16
-11 6 -20 8 -20 6z"/>
<path d="M1976 1675 c10 -8 26 -14 34 -15 8 0 2 7 -14 15 -36 19 -45 19 -20 0z"/>
<path d="M1308 1551 c-16 -18 -15 -20 1 -18 9 0 17 9 17 19 0 10 -1 18 -1 18
0 0 -8 -9 -17 -19z"/>
<path d="M1400 1549 c0 -18 9 -19 155 -19 146 0 155 1 155 19 0 18 -9 19 -155
19 -146 0 -155 -1 -155 -19z"/>
<path d="M1070 1551 c0 -10 19 -25 25 -20 1 2 -3 10 -11 17 -8 7 -14 8 -14 3z"/>
<path d="M1790 1551 c0 -10 19 -25 25 -20 1 2 -3 10 -11 17 -8 7 -14 8 -14 3z"/>
<path d="M1460 1459 c0 -5 5 -7 10 -4 6 3 10 8 10 11 0 2 -4 4 -10 4 -5 0 -10
-5 -10 -11z"/>
<path d="M1630 1466 c0 -2 7 -7 16 -10 8 -3 12 -2 9 4 -6 10 -25 14 -25 6z"/>
<path d="M1425 1430 c-3 -5 -1 -10 4 -10 6 0 11 5 11 10 0 6 -2 10 -4 10 -3 0
-8 -4 -11 -10z"/>
<path d="M1500 1356 c0 -3 9 -10 20 -16 11 -6 20 -8 20 -6 0 3 -9 10 -20 16
-11 6 -20 8 -20 6z"/>
<path d="M2964 1765 c-27 -21 -185 -105 -197 -105 -3 0 -18 -5 -34 -12 -37
-15 -34 -14 -142 -37 -51 -11 -96 -23 -100 -26 -3 -4 5 -4 19 -1 14 3 61 12
105 20 73 14 225 69 257 92 7 6 27 16 43 24 17 8 36 21 43 27 7 7 21 17 30 22
9 5 14 12 12 15 -3 3 -19 -6 -36 -19z"/>
<path d="M2210 1600 c25 -8 97 -13 89 -6 -2 2 -29 6 -59 9 -36 4 -46 3 -30 -3z"/>
<path d="M2323 1583 c7 -7 149 -4 156 3 2 2 -33 4 -79 4 -46 0 -80 -3 -77 -7z"/>
<path d="M2503 1209 c-22 -8 -23 -13 -23 -129 0 -116 1 -121 23 -129 34 -13
49 8 49 68 l-1 52 28 -23 c24 -20 25 -23 10 -26 -25 -4 -35 -41 -17 -59 19
-18 138 -21 136 -3 -2 19 3 30 12 25 15 -9 -11 59 -28 73 -14 11 -14 13 2 25
49 36 -26 82 -89 56 -17 -7 -33 -12 -36 -11 -4 1 -5 -7 -2 -17 3 -10 0 -22 -6
-25 -7 -5 -11 12 -11 52 0 66 -12 85 -47 71z m27 -129 c0 -113 -1 -120 -20
-120 -19 0 -20 7 -20 120 0 113 1 120 20 120 19 0 20 -7 20 -120z m167 36 c14
-13 -12 -23 -47 -19 -55 8 -52 -12 5 -37 39 -17 45 -23 45 -49 0 -47 -70 -70
-115 -38 -24 18 -11 41 15 27 24 -13 57 -13 65 0 4 6 -14 20 -40 31 -42 19
-46 23 -43 52 4 40 37 59 80 46 17 -4 33 -10 35 -13z"/>
<path d="M1147 1204 c-4 -4 -7 -19 -7 -33 0 -24 -3 -26 -47 -27 -40 -1 -50 -6
-74 -35 -20 -24 -29 -29 -29 -17 0 9 -12 26 -27 38 -22 17 -36 20 -67 16 -21
-4 -44 -2 -51 4 -25 21 -44 -21 -46 -104 -2 -85 11 -109 51 -99 16 4 20 14 20
50 0 24 5 53 10 64 12 21 39 26 42 7 0 -7 2 -17 3 -23 2 -5 3 -29 4 -52 1 -33
5 -43 21 -48 25 -8 50 10 50 36 0 16 3 15 25 -6 13 -14 34 -26 47 -26 85 -5
121 -3 129 7 5 7 8 65 7 130 l-3 119 -25 3 c-14 2 -29 0 -33 -4z m48 -124 c0
-117 -1 -120 -22 -120 -17 0 -21 4 -16 18 6 16 5 16 -14 -1 -14 -13 -33 -17
-59 -15 -31 2 -42 9 -57 36 -17 29 -18 39 -8 73 6 21 20 43 31 49 29 15 71 12
93 -7 19 -18 19 -17 16 35 -4 47 -2 52 16 52 20 0 21 -6 20 -120z m-342 33
c-6 -17 -5 -17 14 0 21 18 69 22 93 7 10 -6 17 -33 20 -85 5 -73 4 -75 -17
-75 -21 0 -23 4 -23 59 0 70 -16 91 -55 73 -23 -10 -25 -17 -25 -72 0 -56 -2
-60 -22 -60 -22 0 -23 4 -23 85 0 81 1 85 22 85 17 0 21 -4 16 -17z"/>
<path d="M1063 1074 c-15 -24 -15 -29 -2 -53 11 -19 23 -26 44 -26 21 0 33 7
44 26 13 24 13 29 -2 53 -11 16 -27 26 -42 26 -15 0 -31 -10 -42 -26z m68 -3
c0 -3 2 -14 4 -23 4 -22 -24 -58 -31 -40 -3 6 -10 10 -15 6 -5 -3 -9 -2 -10 3
0 4 -2 17 -4 28 -5 23 20 46 41 38 8 -3 14 -8 15 -12z"/>
<path d="M416 1192 c-7 -12 -10 -227 -3 -238 3 -6 16 -10 29 -8 13 1 26 3 31
3 4 1 7 16 7 35 0 40 5 45 54 48 20 2 36 7 36 11 0 24 18 -8 24 -42 4 -29 12
-42 29 -47 36 -12 141 -12 149 0 4 6 8 48 8 92 0 88 -12 111 -50 99 -20 -6
-26 -28 -22 -84 1 -28 -14 -51 -34 -51 -10 0 -14 15 -14 58 0 60 -11 82 -42
82 -11 0 -23 11 -28 25 -9 24 -13 25 -89 25 -44 0 -82 -4 -85 -8z m164 -22 c0
-18 -7 -20 -60 -20 -60 0 -60 0 -60 -30 0 -30 1 -30 55 -30 48 0 55 -2 55 -20
0 -18 -7 -20 -56 -20 l-56 0 4 -45 c3 -41 1 -45 -19 -45 -23 0 -23 2 -23 115
l0 115 80 0 c73 0 80 -2 80 -20z m17 -38 c-2 -4 -7 -15 -10 -25 -4 -11 -12
-15 -19 -11 -7 5 -29 7 -49 5 -27 -2 -36 2 -36 13 0 12 11 16 43 16 24 0 46 5
49 10 7 11 28 3 22 -8z m165 -84 c3 -85 2 -88 -19 -88 -17 0 -21 4 -16 18 6
16 5 16 -14 0 -11 -10 -34 -18 -51 -18 -44 0 -62 30 -62 107 0 56 2 63 20 63
16 0 19 -8 22 -61 3 -53 6 -63 25 -70 37 -14 58 12 59 73 1 65 1 65 18 65 11
0 15 -20 18 -89z"/>
<path d="M2172 1183 c-6 -2 -9 -9 -6 -14 3 -6 -2 -21 -11 -35 -16 -24 -18 -25
-35 -9 -20 18 -165 31 -154 14 3 -5 12 -9 20 -9 8 0 14 -7 14 -16 0 -14 2 -14
16 1 11 10 29 15 53 13 45 -4 61 -32 61 -110 0 -51 -2 -58 -20 -58 -18 0 -20
7 -20 60 0 50 -3 61 -21 70 -16 9 -26 8 -46 -5 -22 -15 -24 -22 -21 -71 3 -50
1 -54 -19 -54 -22 0 -23 4 -23 86 0 56 -4 83 -10 79 -6 -4 -8 -16 -5 -28 5
-20 4 -20 -17 4 -26 30 -59 49 -83 49 -30 0 -84 -31 -91 -53 -6 -19 -7 -19
-22 6 -23 38 -56 49 -103 37 -24 -7 -46 -7 -56 -2 -20 11 -119 9 -130 -1 -3
-4 3 -7 15 -7 16 0 20 -4 15 -17 -6 -16 -4 -16 15 1 28 24 72 24 92 -1 15 -19
16 -19 31 0 17 22 71 26 94 7 8 -7 15 -39 17 -86 3 -71 2 -74 -19 -74 -20 0
-22 4 -19 43 5 59 -3 85 -26 93 -35 11 -58 -22 -58 -83 0 -46 -2 -53 -20 -53
-18 0 -20 7 -20 59 0 70 -16 91 -55 73 -28 -13 -40 -48 -32 -98 5 -31 3 -34
-18 -34 -21 0 -23 3 -18 39 7 52 -6 139 -17 121 -5 -8 -6 -18 -4 -22 12 -19
-10 -6 -27 16 -23 30 -81 42 -121 25 -27 -11 -29 -16 -25 -45 4 -22 1 -37 -9
-45 -15 -12 -19 -56 -6 -75 16 -25 127 -39 166 -21 12 6 27 4 43 -4 33 -18 51
3 57 66 2 28 4 53 5 58 1 4 8 7 16 7 19 0 33 -35 33 -82 0 -46 7 -58 32 -53
37 7 42 16 38 60 -6 46 5 75 26 75 18 0 26 -22 26 -70 0 -58 7 -69 38 -61 21
6 27 14 27 33 l-1 26 33 -29 c42 -37 73 -44 118 -29 33 11 36 15 33 41 -3 16
1 30 8 33 18 7 24 -3 24 -40 0 -22 5 -33 19 -37 34 -9 50 10 46 56 -3 46 8 77
29 77 18 0 26 -22 26 -75 0 -41 9 -57 37 -61 22 -4 32 22 34 89 1 37 6 67 10
67 5 0 9 7 9 16 0 8 5 12 10 9 6 -4 10 5 10 19 0 19 5 26 20 26 14 0 20 -7 20
-24 0 -19 4 -22 25 -18 22 4 25 1 24 -24 0 -16 -3 -23 -6 -16 -2 6 -13 12 -24
12 -16 0 -19 -7 -19 -56 0 -55 1 -56 25 -50 20 5 25 3 25 -14 0 -16 -7 -20
-33 -20 -46 0 -57 15 -57 83 0 60 -16 73 -18 15 -3 -59 8 -88 39 -104 27 -13
33 -13 61 1 24 11 33 12 39 3 8 -12 128 -16 148 -4 19 12 14 140 -7 166 -23
28 -81 36 -120 16 -28 -15 -33 -14 -61 1 -16 10 -32 26 -35 35 -4 17 -27 22
-54 11z m-799 -71 c13 -12 17 -31 17 -84 0 -61 -2 -68 -20 -68 -11 0 -20 5
-20 11 0 8 -4 8 -14 0 -25 -21 -79 -9 -93 19 -19 39 3 64 61 68 38 3 47 6 44
20 -4 20 -53 29 -72 13 -14 -12 -26 -5 -26 15 0 16 56 33 85 26 11 -3 28 -12
38 -20z m517 8 c16 -8 40 -58 40 -81 0 -5 -32 -9 -72 -9 -70 0 -71 0 -53 -20
19 -21 69 -27 81 -9 4 7 9 8 17 0 18 -18 -12 -41 -53 -41 -57 0 -90 31 -90 85
0 35 5 48 26 64 28 22 74 27 104 11z m534 -3 c14 -10 20 -32 24 -85 4 -68 4
-72 -17 -72 -11 0 -21 5 -21 12 0 9 -3 9 -12 0 -17 -17 -74 -15 -92 4 -22 21
-20 61 3 74 11 5 38 10 60 10 44 0 44 0 35 24 -7 18 -50 21 -74 6 -14 -8 -29
3 -30 22 0 19 100 23 124 5z m-127 -62 c-10 -7 -17 -20 -17 -29 0 -10 -8 -16
-23 -16 -19 0 -23 5 -23 34 0 28 3 33 19 30 13 -2 21 4 24 17 5 19 6 19 21 -2
14 -20 14 -23 -1 -34z m-877 -24 c0 -28 -4 -53 -10 -56 -6 -4 -10 15 -10 49 0
31 5 56 10 56 6 0 10 -22 10 -49z m527 7 c-3 -7 -5 -2 -5 12 0 14 2 19 5 13 2
-7 2 -19 0 -25z m-87 -28 c0 -5 -4 -10 -9 -10 -6 0 -13 5 -16 10 -3 6 1 10 9
10 9 0 16 -4 16 -10z"/>
<path d="M1298 1033 c-30 -5 -38 -30 -13 -39 27 -11 65 5 65 26 0 11 -6 19
-12 19 -7 -1 -25 -4 -40 -6z m32 -17 c0 -11 -19 -15 -25 -6 -3 5 1 10 9 10 9
0 16 -2 16 -4z"/>
<path d="M1805 1080 c-18 -20 -17 -20 33 -20 53 0 62 6 40 28 -18 18 -53 14
-73 -8z"/>
<path d="M2338 1029 c-18 -11 0 -39 25 -39 25 0 47 17 47 36 0 12 -53 14 -72
3z m32 -19 c0 -5 -2 -10 -4 -10 -3 0 -8 5 -11 10 -3 6 -1 10 4 10 6 0 11 -4
11 -10z"/>
<path d="M710 893 c-19 -8 -49 -45 -50 -60 0 -7 -4 -13 -10 -13 -5 0 -10 -7
-10 -15 0 -12 -7 -11 -40 6 -80 42 -160 0 -160 -85 0 -54 23 -82 77 -94 70
-16 119 16 128 83 7 56 13 53 13 -9 0 -64 3 -72 37 -78 32 -7 36 -1 36 67 1
43 5 58 21 69 12 9 19 23 17 38 -2 12 3 33 10 46 21 39 -18 65 -69 45z m70
-20 c-1 -20 -18 -33 -34 -27 -11 4 -22 1 -27 -7 -14 -23 -11 -29 16 -29 16 0
25 -6 25 -15 0 -9 -9 -15 -23 -15 -22 0 -23 -3 -19 -70 4 -66 3 -70 -17 -70
-19 0 -21 5 -21 70 0 56 -3 70 -15 70 -8 0 -15 7 -15 15 0 8 7 15 15 15 9 0
15 9 15 25 0 13 8 29 18 34 20 12 82 15 82 4z m-172 -86 c15 -15 22 -32 22
-59 0 -83 -91 -119 -151 -59 -45 46 -34 111 23 136 39 16 74 10 106 -18z"/>
<path d="M505 760 c-37 -41 11 -104 61 -81 18 8 24 19 24 44 0 18 -5 38 -12
45 -18 18 -53 14 -73 -8z m59 -6 c19 -18 19 -20 6 -45 -15 -28 -47 -24 -54 7
-7 25 7 54 25 54 4 0 15 -7 23 -16z"/>
<path d="M2178 884 c-25 -26 -1 -71 35 -65 4 0 7 -39 7 -89 0 -83 -1 -90 -20
-90 -18 0 -20 7 -20 88 0 53 -4 82 -9 73 -7 -11 -10 -9 -15 7 -5 14 -13 18
-26 15 -15 -4 -20 0 -20 16 0 28 -24 37 -58 22 -18 -9 -22 -15 -14 -20 10 -6
9 -11 -3 -21 -12 -10 -19 -10 -27 -2 -32 32 -65 4 -66 -56 -1 -49 -12 -74 -30
-70 -13 2 -18 18 -22 68 -5 67 -20 62 -20 -6 0 -48 16 -74 45 -74 32 0 45 26
45 88 0 45 2 50 20 45 18 -5 20 -14 20 -89 0 -77 -2 -84 -20 -84 -12 0 -20 7
-20 17 0 15 -1 15 -18 0 -24 -22 -65 -22 -84 1 -10 10 -17 43 -20 85 -3 59 -2
67 14 67 10 0 18 5 18 10 0 30 -50 -7 -51 -38 l-1 -27 -11 27 c-7 19 -22 30
-53 38 -23 7 -50 9 -61 6 -10 -3 -32 -2 -49 3 -21 6 -31 5 -31 -3 0 -6 -2 -15
-3 -21 -1 -5 -2 -60 -1 -121 1 -106 2 -112 23 -117 26 -7 46 7 50 36 2 18 10
22 42 23 31 1 46 8 66 31 l27 30 24 -30 c14 -17 34 -30 44 -29 11 1 44 2 73 2
58 1 57 -2 53 114 -1 43 0 47 14 36 9 -8 15 -29 15 -59 0 -64 21 -91 70 -91
21 0 42 5 45 11 5 7 12 6 23 -4 12 -10 24 -12 39 -6 20 7 22 13 17 56 -3 26
-6 84 -7 128 -2 85 -15 103 -49 69z m40 -22 c3 -17 -2 -22 -17 -22 -14 0 -21
6 -21 18 0 38 33 41 38 4z m-118 -28 c0 -19 5 -24 25 -24 16 0 25 -6 25 -15 0
-10 -10 -15 -28 -15 -27 0 -28 -1 -22 -52 4 -48 7 -53 28 -50 32 5 29 -26 -5
-34 -44 -11 -58 6 -61 75 -2 45 -7 61 -17 61 -8 0 -15 7 -15 15 0 8 7 15 15
15 9 0 15 9 15 23 0 16 6 23 20 24 15 1 20 -4 20 -23z m-442 -33 c3 -8 8 -9
15 -2 12 9 39 14 69 12 58 -4 80 -112 32 -150 -32 -25 -71 -27 -96 -4 -17 15
-18 14 -18 -35 0 -45 -2 -50 -20 -45 -19 5 -20 14 -20 123 0 105 2 118 17 116
9 -2 19 -8 21 -15z m510 -76 c0 -25 -4 -45 -9 -45 -5 0 -9 4 -9 9 0 5 -8 8
-17 7 -13 -1 -18 7 -19 29 -2 39 2 45 31 45 22 0 24 -4 23 -45z"/>
<path d="M1671 756 c-16 -29 -7 -62 20 -77 47 -25 94 31 64 77 -21 33 -67 33
-84 0z m73 -28 c-1 -13 -3 -26 -3 -30 -1 -9 -31 -6 -48 5 -19 12 -16 44 4 56
25 13 50 -3 47 -31z"/>
<path d="M889 859 c-70 -41 -78 -129 -17 -194 34 -36 42 -40 89 -41 42 0 56 5
80 27 28 26 30 26 39 8 6 -10 28 -23 49 -30 32 -9 44 -8 75 6 20 10 44 29 52
44 l15 26 -4 -27 c-5 -30 5 -42 40 -51 29 -7 33 1 34 61 2 59 10 75 35 70 16
-3 20 -14 22 -63 3 -64 13 -78 46 -65 17 6 22 18 26 66 4 51 8 59 26 62 17 2
21 -2 22 -25 0 -90 1 -93 29 -104 20 -7 29 -6 35 3 10 15 6 178 -4 172 -4 -3
-11 3 -16 12 -7 13 -18 15 -53 10 -48 -7 -58 -7 -140 -3 -30 2 -61 7 -67 11
-7 4 -14 -3 -18 -19 -3 -13 -10 -23 -14 -20 -4 2 -5 -8 -3 -23 3 -24 3 -25 -6
-6 -5 12 -14 25 -20 29 -6 3 -8 11 -5 17 4 6 3 8 -3 5 -5 -3 -27 0 -49 8 -33
11 -43 11 -67 -1 -15 -8 -31 -22 -34 -29 -3 -8 -8 -13 -12 -10 -8 4 -10 -3
-12 -61 -1 -34 -2 -35 -17 -16 -14 18 -16 18 -32 2 -41 -41 -121 9 -101 63 8
21 48 55 59 49 48 -27 60 -30 77 -18 9 7 16 21 13 31 -8 46 -108 59 -169 24z
m132 -5 c32 -16 34 -41 3 -36 -76 14 -90 13 -111 -8 -33 -30 -31 -82 4 -110
27 -21 32 -21 107 -8 32 5 29 -20 -5 -38 -78 -40 -169 14 -169 100 0 91 88
143 171 100z m209 -72 c44 -55 8 -142 -59 -142 -85 0 -130 80 -81 143 33 42
107 42 140 -1z m84 32 c9 -3 12 -12 9 -22 -5 -14 -3 -14 15 2 27 24 81 25 97
3 11 -15 13 -15 28 0 21 21 73 21 94 0 11 -11 18 -39 20 -87 4 -69 4 -70 -20
-70 -23 0 -24 3 -19 49 7 78 -26 114 -70 74 -13 -12 -18 -30 -18 -70 0 -46 -2
-53 -20 -53 -18 0 -20 7 -20 59 0 70 -16 91 -55 73 -23 -10 -25 -17 -25 -72 0
-56 -2 -60 -22 -60 -22 0 -23 2 -20 90 2 49 5 90 7 90 2 0 10 -3 19 -6z"/>
<path d="M1120 761 c-15 -29 -12 -56 8 -74 24 -22 45 -21 65 1 34 37 13 92
-33 92 -19 0 -33 -7 -40 -19z m68 -43 c-4 -31 -46 -35 -57 -5 -6 16 -3 26 11
39 18 15 22 15 35 3 8 -8 13 -25 11 -37z"/>
<path d="M2600 829 c0 -7 -12 -8 -31 -4 -42 9 -84 -10 -103 -48 -10 -21 -16
-26 -16 -14 0 10 -11 29 -24 42 -20 20 -32 23 -92 22 l-69 -2 -5 -78 c-6 -98
1 -119 37 -115 26 3 28 7 31 53 4 66 8 75 32 75 21 0 23 -7 24 -75 1 -31 6
-42 25 -51 32 -16 48 -1 44 44 l-2 34 23 -34 c20 -28 21 -35 10 -49 -20 -22
-17 -37 7 -50 19 -10 124 -21 115 -12 -2 2 9 17 25 33 28 27 29 33 29 118 0
60 -4 93 -12 99 -21 16 -48 23 -48 12z m-290 -33 c0 -18 1 -19 13 -2 7 10 27
18 46 18 51 2 71 -29 71 -108 0 -57 -2 -64 -20 -64 -18 0 -20 7 -20 58 0 78
-29 104 -72 65 -13 -12 -18 -30 -18 -70 0 -46 -2 -53 -20 -53 -18 0 -20 7 -20
83 0 46 2 86 5 89 13 12 35 3 35 -16z m278 3 c2 -5 8 -9 13 -9 4 0 6 6 3 13
-3 8 3 13 16 13 19 0 20 -7 20 -97 0 -93 -1 -98 -26 -118 -46 -36 -149 -20
-124 19 7 12 12 12 22 2 21 -21 66 -14 84 13 18 27 12 47 -8 27 -36 -36 -118
10 -118 65 0 34 24 71 54 83 23 9 59 3 64 -11z"/>
<path d="M2522 768 c-7 -7 -12 -25 -12 -40 0 -34 41 -59 68 -41 21 12 28 59
11 79 -14 17 -51 18 -67 2z m58 -24 c6 -14 8 -30 4 -35 -7 -12 -54 -12 -55 1
-1 6 -2 16 -3 23 -2 16 16 36 32 37 7 0 17 -12 22 -26z"/>
<path d="M1771 454 c0 -11 3 -14 6 -6 3 7 2 16 -1 19 -3 4 -6 -2 -5 -13z"/>
<path d="M1746 363 c-6 -14 -5 -15 5 -6 7 7 10 15 7 18 -3 3 -9 -2 -12 -12z"/>
<path d="M1609 83 c-13 -16 -12 -17 4 -4 16 13 21 21 13 21 -2 0 -10 -8 -17
-17z"/>
</g>
</svg>
